HIERARCHY
ROOT ROOT
{
	OFFSET 0.000000 56.020000 -5.659234
	CHANNELS 6 Xposition Yposition Zposition Xrotation Yrotation Zrotation 
	JOINT C_spine0001_bind_JNT
	{
		OFFSET 0.000000 1.618999 0.000000
		CHANNELS 3 Xrotation Yrotation Zrotation
		JOINT C_spine0002_bind_JNT
		{
			OFFSET 0.000000 4.942001 0.000001
			CHANNELS 3 Xrotation Yrotation Zrotation
			JOINT C_spine0003_bind_JNT
			{
				OFFSET 0.000000 4.942001 -0.000000
				CHANNELS 3 Xrotation Yrotation Zrotation
				JOINT C_neck0001_bind_JNT
				{
					OFFSET 0.000000 17.026009 -0.000000
					CHANNELS 3 Xrotation Yrotation Zrotation
					JOINT C_neck0002_bind_JNT
					{
						OFFSET 0.000000 3.249985 0.000000
						CHANNELS 3 Xrotation Yrotation Zrotation
						JOINT C_head_bind_JNT
						{
							OFFSET 0.000000 5.278008 0.000000
							CHANNELS 3 Xrotation Yrotation Zrotation
							End Site
							{
								OFFSET 0.000000 0.000000 0.000000
							}
						}
					}
				}
				JOINT L_clavicle_bind_JNT
				{
					OFFSET 4.590000 12.067001 0.834000
					CHANNELS 3 Xrotation Yrotation Zrotation
					JOINT L_armUpper0001_bind_JNT
					{
						OFFSET 7.812635 0.512001 -3.452945
						CHANNELS 3 Xrotation Yrotation Zrotation
						JOINT L_armLower0001_bind_JNT
						{
							OFFSET 15.265892 -6.552116 -0.058157
							CHANNELS 3 Xrotation Yrotation Zrotation
							JOINT L_hand0001_bind_JNT
							{
								OFFSET 14.747667 -6.369995 5.049225
								CHANNELS 3 Xrotation Yrotation Zrotation
								End Site
								{
									OFFSET 0.000000 0.000000 0.000000
								}
							}
						}
					}
				}
				JOINT R_clavicle_bind_JNT
				{
					OFFSET -4.590000 12.067001 0.834000
					CHANNELS 3 Xrotation Yrotation Zrotation
					JOINT R_armUpper0001_bind_JNT
					{
						OFFSET -7.812635 0.512001 -3.452945
						CHANNELS 3 Xrotation Yrotation Zrotation
						JOINT R_armLower0001_bind_JNT
						{
							OFFSET -15.265890 -6.552124 -0.058160
							CHANNELS 3 Xrotation Yrotation Zrotation
							JOINT R_hand0001_bind_JNT
							{
								OFFSET -14.746784 -6.369629 5.048937
								CHANNELS 3 Xrotation Yrotation Zrotation
								End Site
								{
									OFFSET 0.000000 0.000000 0.000000
								}
							}
						}
					}
				}
			}
		}
	}
	JOINT C_pelvis0001_bind_JNT
	{
		OFFSET -0.000000 0.000000 0.000000
		CHANNELS 3 Xrotation Yrotation Zrotation
		JOINT L_legUpper0001_bind_JNT
		{
			OFFSET 6.599999 -6.027000 0.539000
			CHANNELS 3 Xrotation Yrotation Zrotation
			JOINT L_legLower0001_bind_JNT
			{
				OFFSET -0.140713 -19.187443 0.040261
				CHANNELS 3 Xrotation Yrotation Zrotation
				JOINT L_foot0001_bind_JNT
				{
					OFFSET -0.132215 -18.028637 -1.138370
					CHANNELS 3 Xrotation Yrotation Zrotation
					JOINT L_foot0002_bind_JNT
					{
						OFFSET 0.007014 -4.693133 9.886524
						CHANNELS 3 Xrotation Yrotation Zrotation
						End Site
						{
							OFFSET 0.000000 0.000000 0.000000
						}
					}
				}
			}
		}
		JOINT R_legUpper0001_bind_JNT
		{
			OFFSET -6.599999 -6.027000 0.539000
			CHANNELS 3 Xrotation Yrotation Zrotation
			JOINT R_legLower0001_bind_JNT
			{
				OFFSET 0.140710 -19.187164 0.040550
				CHANNELS 3 Xrotation Yrotation Zrotation
				JOINT R_foot0001_bind_JNT
				{
					OFFSET 0.132215 -18.028633 -1.138362
					CHANNELS 3 Xrotation Yrotation Zrotation
					JOINT R_foot0002_bind_JNT
					{
						OFFSET -0.007014 -4.693128 9.886505
						CHANNELS 3 Xrotation Yrotation Zrotation
						End Site
						{
							OFFSET 0.000000 0.000000 0.000000
						}
					}
				}
			}
		}
	}
}
MOTION
Frames: 6
Frame Time: 0.033333
0.000000 52.092266 0.000000 0.032201 0.113192 -0.025298 -1.026401 -0.258545 0.251521 4.882257 -0.149687 0.180071 2.417825 0.043227 0.003247 -1.362159 0.270290 2.081982 1.715138 0.876707 -1.450833 14.068621 -0.477390 -3.370315 -2.288936 11.441398 -2.179889 -3.020933 9.125046 -57.898998 5.893439 0.948011 2.664484 0.062643 -34.660759 -26.383022 -2.328449 -13.109552 1.188603 -2.148735 -3.589611 58.420208 13.338461 5.642988 -1.779741 1.000997 32.317760 26.346407 0.306347 -0.733841 0.269532 -3.452357 1.454268 8.674322 -0.607071 5.334400 -0.511192 4.284098 0.664609 -6.598164 0.369242 -0.961427 -0.205021 4.512791 -1.238775 -3.587211 -0.272463 0.793353 -1.895704 -2.627073 -10.067363 3.652813 -0.529185 0.395533 0.037185 
-0.089957 51.976990 -0.035173 -0.000310 0.340842 -0.012757 -1.083102 -0.139842 0.186692 5.464109 -0.270218 0.246507 2.624109 -0.113082 0.310830 -2.557439 -0.063217 1.773588 2.226527 1.334665 -1.071621 14.220273 -0.667519 -3.983108 -2.847665 11.135089 -2.255851 -2.072306 9.457316 -58.211246 4.561632 -0.191869 1.805401 -0.053942 -34.579269 -25.933346 -2.609828 -12.798415 0.666621 -2.202998 -3.359871 59.570415 12.486531 5.900779 -1.962483 1.464810 31.811625 25.815601 0.128081 -0.685042 0.409696 -3.017805 2.026519 8.620837 -0.188941 5.898517 -0.482263 4.012263 -0.479934 -6.368501 0.078825 -0.316746 -0.281851 4.382603 -1.105740 -4.045197 -0.821063 0.827860 -1.445817 -1.916388 -10.206285 3.442222 -0.549164 -0.181046 0.061663 
-0.235790 51.977245 -0.095232 0.008208 0.561058 -0.000030 -0.982236 -0.336267 0.252601 5.114375 -0.109205 0.335057 2.692434 0.041261 0.176577 -2.786529 0.003436 1.722252 2.171924 1.204618 -0.995629 14.220162 -0.736543 -3.663908 -3.092283 11.398355 -2.003290 -1.640987 9.324531 -58.594345 4.703829 -0.397334 1.865998 -0.212583 -34.179928 -25.898380 -2.757992 -12.962342 0.922264 -2.127812 -3.451410 59.315277 12.328153 6.201401 -1.925533 2.235131 31.053820 25.388702 0.033545 -0.690658 0.519843 -3.214145 1.931824 8.513436 -0.224275 6.152880 -0.627139 4.326853 -0.792631 -5.986912 0.174691 -0.473528 -0.452101 4.441953 -1.324274 -3.382427 -0.560788 0.918580 -1.577302 -2.297987 -10.323833 3.125699 -0.493193 -0.082780 -0.154819 
-0.198589 52.051228 -0.166135 0.007488 0.752300 -0.010530 -1.021192 -0.320107 0.145725 5.135923 0.020479 0.321690 2.691338 0.054568 0.249142 -2.927970 0.076867 1.655560 2.392069 1.281333 -1.019616 14.005951 -0.809241 -3.480893 -3.030106 11.509540 -1.905995 -1.451449 9.008260 -58.665031 4.644269 -0.683269 2.013133 -0.392518 -33.952488 -25.998194 -2.619533 -12.822874 0.974867 -2.564761 -3.751593 59.278336 12.632557 5.936677 -1.604815 2.639238 31.017864 24.813887 0.200741 -0.619855 0.493519 -3.247548 1.571790 8.514789 -0.283289 6.540872 -0.638102 4.248199 -0.772834 -5.793370 0.193875 -0.494940 -0.506744 4.030432 -1.383641 -3.492381 -0.615036 0.918801 -1.266546 -2.153314 -10.189830 2.991092 -0.093965 -0.138042 -0.137855 
-0.262602 52.021599 -0.181127 0.005425 0.984652 -0.004578 -1.067882 -0.267137 0.056774 5.077958 0.025331 0.399432 2.480508 0.078519 0.164284 -2.616974 0.058030 1.667811 2.209282 1.377074 -0.847979 14.465280 -0.813776 -3.719049 -2.852145 11.527472 -1.697037 -1.374776 8.748603 -58.841415 4.969208 -0.362329 2.258388 -0.604959 -33.991119 -26.073046 -2.379030 -12.888237 1.060897 -2.420070 -3.664360 59.317787 12.568656 6.218613 -2.131265 2.706717 30.630026 24.641718 0.143212 -0.484745 0.565386 -3.009721 1.308720 8.517125 -0.608006 6.807082 -0.721691 4.519159 -0.792211 -5.617008 0.128162 -0.532435 -0.663070 3.991616 -1.488030 -3.431274 -0.625891 0.705452 -1.202361 -2.043583 -10.088932 2.807839 -0.310183 -0.171235 -0.064916 
-0.288213 52.034725 -0.175623 0.002603 1.035146 -0.008177 -1.003610 -0.007897 0.031111 4.962562 -0.036955 0.423184 2.522286 0.023867 0.275860 -2.610616 0.036505 1.640466 2.306574 1.276721 -1.012884 14.450400 -0.857942 -3.456309 -2.960728 11.286588 -1.667342 -1.112730 8.953219 -58.847897 5.259756 -0.541536 2.189298 -1.048105 -34.000092 -26.215403 -2.482594 -12.838326 0.851663 -2.373102 -3.561575 59.543713 12.366971 6.252203 -2.187886 3.012040 30.130913 24.226866 0.144003 -0.269282 0.472690 -2.939908 1.182516 8.582238 -0.724950 6.726620 -0.745304 4.556930 -0.802670 -5.704355 0.150516 -0.416443 -0.694809 4.000686 -1.331567 -3.265443 -0.540987 0.592096 -1.190528 -2.107390 -10.198496 2.794784 -0.345088 0.041511 -0.104650 
